<?xml version="1.0" encoding="UTF-8"?>
<svg id="Laag_1" data-name="Laag 1" xmlns="http://www.w3.org/2000/svg" viewBox="0 0 1134.68 393.96">
  <defs>
    <style>
      .cls-1 {
        fill: #e74016;
      }
    </style>
  </defs>
  <g>
    <path class="cls-1" d="M486.89,259.88c.36-1.63.49-3.04.38-4.21-.1-1.17-.15-2.58-.15-4.21,0-3.78.09-7.67.27-11.68.18-4.01.12-7.85-.19-11.53,0-.25.01-.84.04-1.76.03-.92.06-1.9.12-2.95.05-1.05.09-2.02.12-2.91.03-.89.04-1.47.04-1.72,0-.1-.03-.57-.08-1.42-.05-.84-.08-1.47-.08-1.88,0-2.4.06-4.9.19-7.51.13-2.6.19-5.13.19-7.58v-.15c-.1-.15-.38-.47-.84-.96-.46-.48-.74-.78-.84-.88-.1-.1-.27-.4-.5-.88-.23-.48-.4-.78-.5-.88-2.45-3.93-4.97-7.98-7.55-12.14-2.58-4.16-4.94-8.34-7.09-12.53-.26-.36-.68-.98-1.26-1.88-.59-.89-1.21-1.83-1.88-2.8-.66-.97-1.29-1.89-1.88-2.76-.59-.87-.98-1.48-1.19-1.84-.72-1.48-1.43-3.09-2.14-4.83-.72-1.74-1.66-3.19-2.83-4.37-.2-.41-.52-.98-.96-1.72-.43-.74-.89-1.51-1.38-2.3-.49-.79-.95-1.53-1.38-2.22-.43-.69-.75-1.24-.96-1.65-.56-1.28-1.16-2.66-1.8-4.14-.64-1.48-1.19-2.88-1.65-4.21v-.31c0-.71.19-1.25.58-1.61.38-.36.83-.6,1.34-.73.51-.13,1.15-.19,1.92-.19.15-.05.59-.08,1.3-.08h2.34c.84,0,1.62.01,2.34.04.71.03,1.17.04,1.38.04s.65-.05,1.34-.15c.69-.1,1.51-.2,2.45-.31.94-.1,1.94-.23,2.99-.38,1.05-.15,2.03-.28,2.95-.38.92-.1,1.72-.19,2.41-.27s1.14-.14,1.34-.19c1.07,0,1.77.11,2.11.34.33.23.68.57,1.03,1.03.46.77.97,1.55,1.53,2.34.56.79,1.14,1.61,1.72,2.45.59.84,1.14,1.69,1.65,2.53.51.84.94,1.65,1.3,2.41,1.17,2.71,2.26,5.17,3.26,7.39s2.18,4.61,3.56,7.16c.15.21.45.69.88,1.46.43.77.91,1.61,1.42,2.53.51.92,1,1.76,1.46,2.53.46.77.74,1.25.84,1.46.31.56.61,1.26.92,2.11.31.84.64,1.69,1,2.53.36.84.75,1.65,1.19,2.41.43.77.91,1.33,1.42,1.69.05-.05.18-.32.38-.8.2-.48.42-1.01.65-1.57.23-.56.45-1.07.65-1.53.2-.46.33-.74.38-.84.1-.26.41-.84.92-1.76.51-.92,1.06-1.89,1.65-2.91.59-1.02,1.14-1.98,1.65-2.87.51-.89.82-1.47.92-1.72.1-.1.33-.41.69-.92.36-.51.74-1.07,1.15-1.69.41-.61.79-1.19,1.15-1.72.36-.54.59-.88.69-1.03.05-.05.12-.18.19-.38.08-.2.15-.42.23-.65.08-.23.15-.45.23-.65.08-.2.12-.36.12-.46.05-.15.18-.45.38-.88.2-.43.42-.89.65-1.38.23-.48.45-.93.65-1.34.2-.41.36-.69.46-.84-.26-.61-.17-1.11.27-1.49.43-.38.83-.78,1.19-1.19.56-.61,1.02-1.37,1.38-2.26.36-.89.79-1.7,1.3-2.41.05-.15.25-.47.61-.96.36-.48.73-1,1.11-1.53.38-.54.74-1.03,1.07-1.49.33-.46.55-.77.65-.92.46-.66.87-1.23,1.23-1.69.36-.46.74-.83,1.15-1.11.41-.28.89-.48,1.46-.61.56-.13,1.28-.19,2.14-.19,1.12,0,2.18.06,3.18.19,1,.13,1.99.28,2.99.46,1,.18,1.99.37,2.99.57,1,.2,2.08.36,3.26.46,1.12.05,2.34.08,3.64.08s2.58.06,3.83.19c1.25.13,2.42.37,3.52.73,1.1.36,1.98.87,2.64,1.53.25.31.39.59.42.84.03.26.04.54.04.84v.46c-2.09,4.39-4.32,8.53-6.66,12.41-2.35,3.88-4.75,7.71-7.2,11.49-2.45,3.78-4.93,7.58-7.43,11.41-2.5,3.83-4.93,7.87-7.28,12.1-.1.15-.34.56-.73,1.23-.38.66-.63,1.07-.73,1.23-.87,1.23-1.65,2.39-2.34,3.49-.69,1.1-1.35,2.2-1.99,3.29-.64,1.1-1.26,2.23-1.88,3.41-.61,1.18-1.25,2.43-1.92,3.75-.26,0-.4.2-.42.61-.03.41-.03.86,0,1.34.03.49.08.97.15,1.46.08.49.11.8.11.96,0,.26.01.63.04,1.11.02.49.04.96.04,1.42s.01.87.04,1.23c.03.36.04.56.04.61,0,.15.01.43.04.84.02.41.06.87.11,1.38.05.51.1,1.02.15,1.53.05.51.1.89.15,1.15.2,1.69.29,3.77.27,6.24-.03,2.48-.05,5.03-.08,7.66-.03,2.63-.03,5.17,0,7.62.03,2.45.19,4.49.5,6.13l-.61,10.11c.05.15.09.4.12.73.03.33.06.69.12,1.07.05.38.09.74.11,1.07.03.33.06.57.12.73v.61c0,.41-.14.73-.42.96-.28.23-.61.42-1,.57s-.78.27-1.19.34c-.41.08-.74.14-1,.19-.2,0-.65.03-1.34.08-.69.05-1.43.12-2.22.19-.79.08-1.53.14-2.22.19-.69.05-1.14.08-1.34.08-.41,0-1.11.01-2.11.04-1,.03-2.03.06-3.1.11-1.07.05-2.08.09-3.03.12-.95.03-1.6.04-1.95.04-1.33.15-2.71.19-4.14.11-1.43-.08-2.86-.11-4.29-.11-.41,0-.77-.24-1.07-.73-.31-.48-.46-.93-.46-1.34v-.15Z"/>
    <path class="cls-1" d="M616.36,262.4c-.61-.36-.88-.87-.8-1.53.08-.66.09-1.3.04-1.92,0-.1-.08-.26-.23-.46-.15-.2-.23-.36-.23-.46v-.69c0-.71.15-1.35.46-1.92.31-.56.46-1.17.46-1.84v-.46c-.15,0-.4.05-.73.15-.33.1-.55.2-.65.31-.36.26-.93.64-1.72,1.15-.79.51-1.65,1.05-2.57,1.61-.92.56-1.81,1.07-2.68,1.53-.87.46-1.53.72-1.99.77l-5.98,2.45h-.46c-.1,0-.28.03-.54.08-.26.05-.52.12-.8.19-.28.08-.56.14-.84.19-.28.05-.45.08-.5.08h-7.28c-.77,0-1.49-.03-2.18-.08-.69-.05-1.41-.1-2.15-.15-.74-.05-1.57-.15-2.49-.31-.1-.05-.37-.13-.8-.23-.43-.1-.89-.2-1.38-.31-.49-.1-.95-.19-1.38-.27-.43-.08-.7-.11-.8-.11h-3.98l-2.53-1c-.36-.15-.91-.43-1.65-.84-.74-.41-1.53-.84-2.38-1.3-.84-.46-1.65-.89-2.41-1.3-.77-.41-1.33-.69-1.69-.84-.31-.15-.77-.37-1.38-.65-.61-.28-1.24-.59-1.88-.92-.64-.33-1.24-.62-1.8-.88-.56-.25-.92-.43-1.07-.54-.05-.05-.18-.17-.38-.34-.2-.18-.45-.4-.73-.65-.28-.25-.56-.5-.84-.73-.28-.23-.5-.4-.65-.5-1.28-1.28-2.5-2.68-3.68-4.21-1.18-1.53-2.35-2.99-3.52-4.37-1.07-1.28-1.97-2.96-2.68-5.06-.72-2.09-1.3-4.3-1.76-6.63-.46-2.32-.79-4.61-1-6.86-.21-2.25-.31-4.19-.31-5.82,0-2.09.01-4.03.04-5.82.03-1.79.13-3.54.31-5.25.18-1.71.45-3.43.8-5.17.36-1.74.87-3.6,1.53-5.59.05-.31.24-.96.58-1.95.33-1,.68-1.99,1.03-2.99.36-1,.66-1.8.92-2.41.25-.61.36-.64.31-.08.82-2.35,1.89-4.53,3.22-6.55,1.33-2.02,2.83-3.89,4.52-5.63,1.69-1.74,3.51-3.34,5.48-4.83,1.97-1.48,4-2.86,6.09-4.14.2-.15.68-.42,1.42-.8.74-.38,1.53-.78,2.37-1.19.84-.41,1.66-.8,2.45-1.19.79-.38,1.34-.62,1.65-.73.05-.05.22-.11.5-.19.28-.08.61-.17,1-.27.38-.1.77-.19,1.15-.27.38-.08.7-.14.96-.19.31-.1.71-.2,1.23-.31.51-.1.82-.15.92-.15h15.09c1.79.51,3.52.98,5.21,1.42,1.69.43,3.31.97,4.86,1.61,1.56.64,3.06,1.41,4.52,2.3,1.46.89,2.87,2.06,4.25,3.49h.31c0-.15.01-.37.04-.65.03-.28.04-.57.04-.88s.01-.6.04-.88c.02-.28.04-.47.04-.57,0-.05.03-.23.08-.54.05-.31.12-.64.19-1,.08-.36.15-.68.23-.96.08-.28.11-.45.11-.5-.26-.36-.28-.73-.08-1.11.2-.38.5-.7.88-.96.38-.25.8-.42,1.26-.5.46-.08.84-.01,1.15.19,2.55,0,4.8.01,6.74.04,1.94.03,3.83.08,5.67.15,1.84.08,3.74.22,5.71.42,1.96.21,4.22.46,6.78.77.15.1.41.24.77.42.36.18.54.4.54.65,0,.46.02,1.02.08,1.69.05.66.1,1.37.15,2.11.05.74.1,1.46.15,2.15.05.69.05,1.29,0,1.8,0,.1-.03.41-.08.92-.05.51-.1,1.07-.15,1.69-.05.61-.1,1.18-.15,1.69-.05.51-.08.82-.08.92,0,.15-.08.52-.23,1.11-.15.59-.23.93-.23,1.03,0,.15.01.47.04.96.03.49.04,1,.04,1.53v1.53c0,.49-.03.78-.08.88,0,.15-.05.38-.15.69-.1.31-.21.54-.31.69l-.15,18.08v4.6c0,1.94.01,4.35.04,7.24.03,2.89.06,6.09.12,9.61.05,3.52.1,7.04.15,10.53.05,3.5.1,6.81.15,9.92.05,3.12.13,5.72.23,7.81,0,.15-.04.55-.12,1.19-.08.64-.15,1.34-.23,2.11s-.15,1.47-.23,2.11c-.08.64-.09,1.03-.04,1.19v1.23c-.1.15-.45.33-1.03.54-.59.2-.93.36-1.03.46-1.38,0-2.57.05-3.56.15-1,.1-1.94.22-2.83.34-.89.13-1.81.24-2.76.34-.95.1-2.11.13-3.49.08h-3.6c-.36,0-.96-.01-1.8-.04-.84-.03-1.74-.06-2.68-.12-.95-.05-1.84-.1-2.68-.15-.84-.05-1.44-.1-1.8-.15ZM571.08,212c0,2.71.45,5.21,1.34,7.51.89,2.3,2.06,4.57,3.49,6.82.1.15.25.4.46.73.2.33.36.5.46.5,1.23,1.33,2.49,2.6,3.79,3.83,1.3,1.23,2.68,2.31,4.14,3.26,1.46.95,3,1.7,4.63,2.26,1.63.56,3.42.84,5.36.84,1.63,0,3.29-.28,4.98-.84,1.69-.56,3.27-1.15,4.75-1.76.2-.1.5-.24.88-.42.38-.18.77-.36,1.15-.54.38-.18.71-.34,1-.5.28-.15.47-.25.58-.31,1.89-1.43,3.45-3.13,4.67-5.09,1.23-1.97,2.21-4.06,2.95-6.28.74-2.22,1.25-4.52,1.53-6.89.28-2.38.47-4.66.57-6.86,0-.25-.01-.69-.04-1.3-.03-.61-.06-1.25-.12-1.92-.05-.66-.1-1.29-.15-1.88-.05-.59-.1-.98-.15-1.19l-.69-1.38c-.2-.41-.41-.79-.61-1.15-.21-.36-.36-.66-.46-.92-1.02-1.94-2.06-3.82-3.1-5.63-1.05-1.81-2.44-3.26-4.17-4.33-.41-.31-.87-.65-1.38-1.03-.51-.38-1.06-.77-1.65-1.15-.59-.38-1.16-.74-1.72-1.07-.56-.33-1.07-.55-1.53-.65-.2-.05-.57-.15-1.11-.31s-1.11-.31-1.72-.46c-.61-.15-1.19-.28-1.72-.38-.54-.1-.91-.18-1.11-.23-.31-.46-.77-.73-1.38-.8-.61-.08-1.29-.08-2.03,0s-1.47.19-2.18.34c-.72.15-1.3.23-1.76.23-.77,0-1.58.14-2.45.42-.87.28-1.7.65-2.49,1.11-.79.46-1.56.97-2.3,1.53-.74.56-1.39,1.15-1.95,1.76-.1.1-.32.36-.65.77-.33.41-.69.83-1.07,1.26-.38.43-.75.86-1.11,1.26-.36.41-.56.66-.61.77-1.94,2.15-3.29,4.67-4.06,7.58-.46,2.04-.78,4.1-.96,6.17-.18,2.07-.27,4.18-.27,6.32Z"/>
    <path class="cls-1" d="M661.32,263.32l-4.44-.38c-.41.05-.64.04-.69-.04-.05-.08-.1-.24-.15-.5-.05-.61-.06-1.14-.04-1.57.03-.43-.01-.96-.12-1.57-.05-.56-.18-1.01-.38-1.34-.2-.33-.33-.73-.38-1.19-.05-.31-.08-.59-.08-.84s.13-.51.38-.77c.1-.71.15-2.32.15-4.83s-.05-5.53-.15-9.08c-.1-3.55-.22-7.43-.34-11.64-.13-4.21-.27-8.41-.42-12.6-.15-4.19-.28-8.15-.38-11.87-.1-3.73-.15-6.9-.15-9.5.05-.51.03-1.19-.08-2.03-.1-.84-.22-1.74-.34-2.68-.13-.94-.24-1.85-.34-2.72-.1-.87-.1-1.58,0-2.15,0-.1-.01-.34-.04-.73-.03-.38-.06-.65-.11-.8-.26,0-.4-.13-.42-.38-.03-.25-.06-.51-.11-.77l-.08-.61.46-.77c.1-1.33.13-2.46.08-3.41-.05-.94-.13-2.06-.23-3.33,0-.2-.01-.46-.04-.77-.03-.31-.06-.64-.12-1-.05-.36-.08-.77-.08-1.23,0-.1-.09-.33-.27-.69-.18-.36-.27-.59-.27-.69s.04-.32.12-.65c.08-.33.14-.55.19-.65v-.57c0-.33.01-.68.04-1.03.03-.36.05-.69.08-1,.03-.31.06-.51.12-.61l.15-.15c.05-.05.08-.15.08-.31,1.74-.2,3.42-.5,5.06-.88,1.63-.38,3.32-.6,5.06-.65,2.09-.1,4.11-.05,6.05.15,1.94.2,3.93.43,5.98.69.25.05.62.09,1.11.11.49.03.97.08,1.46.15.48.08.93.24,1.34.5.41.26.64.64.69,1.15.1.87.06,1.58-.12,2.15-.18.56-.22,1.3-.12,2.22v.23c0,.1.01.18.04.23.03.05.04.1.04.15.36-.15.82-.37,1.38-.65.56-.28,1.15-.57,1.76-.88.61-.31,1.21-.6,1.8-.88.59-.28,1.03-.5,1.34-.65.1-.05.4-.2.88-.46.49-.25.8-.43.96-.54.1,0,.39-.06.88-.19.48-.13.75-.24.8-.34.46-.31,1.03-.61,1.72-.92.69-.31,1.39-.6,2.11-.88.71-.28,1.37-.52,1.95-.73.59-.2.96-.36,1.11-.46,1.28-.51,2.58-.82,3.91-.92,1.33-.1,2.71-.18,4.14-.23,2.3-.15,4.65.03,7.05.54,2.4.51,4.71,1.21,6.93,2.11,2.22.89,4.24,1.92,6.05,3.06,1.81,1.15,3.28,2.29,4.41,3.41.36.41.75.91,1.19,1.49.43.59.84,1.2,1.23,1.84.38.64.71,1.26,1,1.88.28.61.45,1.18.5,1.69,0,.31-.15.7-.46,1.19-.31.49-.68.98-1.11,1.49-.43.51-.87.97-1.3,1.38-.43.41-.75.66-.96.77-.05.05-.18.15-.38.31s-.42.31-.65.46c-.23.15-.46.31-.69.46-.23.15-.37.26-.42.31-.21.15-.5.37-.88.65-.38.28-.77.57-1.15.88-.38.31-.74.59-1.07.84-.33.26-.52.41-.58.46-.87.66-1.7,1.38-2.49,2.15-.79.77-1.63,1.48-2.53,2.15-.89.66-1.84,1.23-2.83,1.69-1,.46-2.11.72-3.33.77h-1.53c-.15-.05-.28-.1-.38-.15-.15-.05-.33-.13-.54-.23-2.09-1.07-4.32-2.07-6.67-2.99-2.35-.92-4.7-1.35-7.05-1.3-1.74.1-3.17.74-4.29,1.92-1.12,1.18-2.17,2.4-3.14,3.68-.1.2-.38.56-.84,1.07-.46.51-.74.89-.84,1.15-.1.2-.31.55-.61,1.03-.31.49-.63,1.01-.96,1.57-.33.56-.66,1.14-1,1.72-.33.59-.55,1.06-.65,1.42-.51,1.18-.82,2.48-.92,3.91-.1,1.43-.2,2.78-.31,4.06-.72,5.16-1.03,9.84-.96,14.06.08,4.21.34,8.19.8,11.91.26,2.76.56,5.47.92,8.12.36,2.66.66,5.36.92,8.12.05.31.1.86.15,1.65.05.79.12,1.61.19,2.45.08.84.15,1.66.23,2.45.08.79.11,1.34.11,1.65-.1.05-.19.1-.27.15-.08.05-.17.1-.27.15l-.31.15h-.46c-.1,0-.26-.04-.46-.12-.21-.08-.36-.17-.46-.27l-20.84.69Z"/>
    <path class="cls-1" d="M742.45,262.56c-.66-.15-1.2-.36-1.61-.61-.46-.31-.8-.68-1.03-1.11-.23-.43-.38-.88-.46-1.34-.08-.46-.1-.89-.08-1.3.02-.41.04-.77.04-1.07,0-3.88-.05-7.75-.15-11.61-.1-3.86-.19-7.72-.27-11.61-.08-3.88-.08-7.76,0-11.64.08-3.88.27-7.76.58-11.64l-.31-3.6c.05-.41.1-.79.15-1.15.05-.31.08-.62.08-.96s.03-.62.08-.88v-10.19c0-1.28.01-2.49.04-3.64.03-1.15.04-1.88.04-2.18,0-.25.04-.94.12-2.07.08-1.12.15-2.32.23-3.6.08-1.28.13-2.48.15-3.6.03-1.12.04-1.84.04-2.15.05-1.12.01-2.4-.11-3.83-.13-1.43-.22-2.73-.27-3.91l.15-2.68c0-.61.17-1.03.5-1.26.33-.23.69-.37,1.07-.42.38-.05.74-.05,1.07,0,.33.05.52.05.58,0,.15,0,.45-.01.88-.04.43-.03.89-.06,1.38-.12.48-.05.93-.1,1.34-.15.41-.05.66-.1.77-.15h5.4c.84,0,1.7.01,2.57.04.87.03,1.84.06,2.91.11l.84.08c.05,0,.22.03.5.08.28.05.59.1.92.15.33.05.65.11.96.19s.54.14.69.19c1.07.21,1.83.45,2.26.73.43.28.71.66.84,1.15.13.49.2,1.09.23,1.8.03.72.14,1.58.34,2.6,2.2-1.99,4.49-3.6,6.9-4.83,2.4-1.23,4.88-2.16,7.43-2.8,2.55-.64,5.17-1.03,7.85-1.19,2.68-.15,5.45-.15,8.31,0,.77,0,1.58.09,2.45.27.87.18,1.75.4,2.64.65.89.26,1.76.56,2.6.92.84.36,1.6.72,2.26,1.07.46.31,1.06.74,1.8,1.3.74.56,1.47,1.14,2.18,1.72.71.59,1.34,1.1,1.88,1.53.54.43.83.65.88.65,1.43,1.07,2.69,2.31,3.79,3.72,1.1,1.41,2.04,2.9,2.83,4.48.79,1.58,1.46,3.24,1.99,4.98.54,1.74.98,3.45,1.34,5.13.15.2.33.73.54,1.57s.4,1.79.58,2.83c.18,1.05.33,2.11.46,3.18.13,1.07.19,1.92.19,2.53v2.83c0,.82.01,1.71.04,2.68.02.97.05,1.86.08,2.68.03.82.04,1.33.04,1.53l.08,12.72-.15,2.68c-.05.15-.1.46-.15.92-.05.46-.12.95-.19,1.46-.08.51-.14,1-.19,1.46-.05.46-.08.79-.08,1l-.08,1.69c-.05.97-.08,2.21-.08,3.72s-.01,3.12-.04,4.83c-.03,1.71-.04,3.45-.04,5.21v4.86c0,1.48.01,2.73.04,3.75.03,1.02.04,1.66.04,1.92v2.53c0,.56.01,1.09.04,1.57.02.49.04.78.04.88l-.08.77c0,.56-.32.91-.96,1.03-.64.13-1.16.22-1.57.27-.15,0-.37.01-.65.04-.28.03-.58.06-.88.11-.31.05-.58.09-.8.12-.23.03-.37.06-.42.11h-3.14c-.72,0-1.38.01-1.99.04-.61.03-1,.06-1.15.12-2.4.1-4.63.24-6.7.42-2.07.18-4.35.22-6.86.11-.92-.05-1.56-.29-1.92-.73-.36-.43-.59-.96-.69-1.57-.1-.61-.13-1.26-.08-1.95s.08-1.34.08-1.95v-1.8c0-.94.01-2.03.04-3.26.03-1.23.04-2.55.04-3.98s.01-2.76.04-3.98c.02-1.23.04-2.3.04-3.22v-1.84l.08-17.77c.1-1.79.1-3.86,0-6.21-.1-2.35-.34-4.77-.73-7.28-.38-2.5-.91-4.95-1.57-7.35-.66-2.4-1.48-4.53-2.45-6.4-.97-1.86-2.09-3.33-3.37-4.4-1.28-1.07-2.71-1.53-4.29-1.38l-2.68-.15c-1.79-.05-3.26.15-4.4.61-1.15.46-2.52,1.15-4.1,2.07-.1,0-.21.06-.31.19-.1.13-.15.24-.15.34-1.43,1.07-2.64,2.59-3.64,4.56-1,1.97-1.84,4.19-2.53,6.66-.69,2.48-1.26,5.11-1.72,7.89-.46,2.78-.84,5.53-1.15,8.24-.05.26-.13.89-.23,1.92-.1,1.02-.22,2.16-.34,3.41-.13,1.25-.23,2.5-.31,3.75-.08,1.25-.14,2.21-.19,2.87,0,.05-.01.31-.04.77-.03.46-.06,1.01-.11,1.65-.05.64-.1,1.26-.15,1.88-.05.61-.08,1.1-.08,1.46,0,.26-.01.66-.04,1.23-.03.56-.04,1.16-.04,1.8s-.01,1.24-.04,1.8c-.03.56-.04.95-.04,1.15l.08,11.49c-.05.15-.03.46.08.92.1.46.15.77.15.92,0,.05.01.19.04.42.03.23.04.47.04.73v1.23c0,.41.02.89.08,1.46.05.56.03,1.11-.08,1.65-.1.54-.32.98-.65,1.34-.33.36-.91.51-1.72.46-1.18-.05-2.46-.06-3.87-.04-1.41.03-2.87.06-4.4.11-1.53.05-3.09.09-4.67.12-1.58.03-3.09-.04-4.52-.19Z"/>
    <path class="cls-1" d="M837.98,258.8c0-.82.18-1.63.54-2.45.36-.82.61-1.58.77-2.3.05-.1.14-.36.27-.77.13-.41.27-.83.42-1.26.15-.43.29-.83.42-1.19.13-.36.22-.59.27-.69v-1.38l.15-.46c.05-.2.15-.38.31-.54.05-.1.15-.36.31-.77.15-.41.32-.84.5-1.3.18-.46.36-.91.54-1.34.18-.43.32-.75.42-.96,0-.1.05-.31.15-.61.1-.31.2-.51.31-.61,0-.05.01-.22.04-.5.02-.28.06-.56.11-.84.05-.28.1-.55.15-.8.05-.25.1-.43.15-.54,0-.1.14-.4.42-.88.28-.48.42-.78.42-.88.05-.05.14-.26.27-.61.13-.36.27-.74.42-1.15.15-.41.29-.79.42-1.15.13-.36.22-.59.27-.69.46-1.28,1.01-2.57,1.65-3.87.64-1.3,1.24-2.62,1.8-3.95.1-.15.2-.41.31-.77.1-.36.15-.59.15-.69v-.77c0-.1.13-.33.38-.69.25-.36.38-.59.38-.69.05-.05.19-.25.42-.61.23-.36.47-.74.73-1.15.25-.41.5-.82.73-1.23.23-.41.4-.71.5-.92.25-.56.48-1.07.69-1.53.2-.46.38-1,.54-1.61,0-.1.06-.46.19-1.07.13-.61.24-1,.34-1.15l.77-.77c.05-.15.2-.46.46-.92.25-.46.52-.98.8-1.57.28-.59.56-1.15.84-1.69.28-.54.47-.93.57-1.19.1-.15.25-.52.46-1.11.2-.59.36-.96.46-1.11,0-.1.05-.38.15-.84.1-.46.2-.74.31-.84,0-.1.13-.34.38-.73.25-.38.38-.62.38-.73.66-1.48,1.31-3.05,1.95-4.71.64-1.66,1.31-3.36,2.03-5.09.71-1.74,1.52-3.45,2.41-5.13.89-1.69,1.93-3.29,3.1-4.83.97-1.48,1.74-2.68,2.3-3.6.56-.92,1.01-1.67,1.34-2.26.33-.59.6-1.11.8-1.57.2-.46.43-.97.69-1.53.25-.56.57-1.28.96-2.15.38-.87.96-2.02,1.72-3.45.05-.05.15-.27.31-.65s.33-.79.54-1.23c.2-.43.38-.85.54-1.26.15-.41.25-.66.31-.77,0-.1.08-.27.23-.5.15-.23.23-.4.23-.5,0-.15-.03-.56-.08-1.23-.05-.66-.08-1.07-.08-1.23h-22.29c-.26,0-.68.04-1.26.11-.59.08-1.2.15-1.84.23s-1.26.15-1.88.23c-.61.08-1.02.14-1.23.19h-9.27l-.84-3.14v-22.45c.2-.77.33-1.46.38-2.07.05-.61.18-1.12.38-1.53.2-.41.55-.71,1.03-.92.48-.2,1.26-.31,2.34-.31,2.2,0,4.35.15,6.47.46,2.12.31,4.3.46,6.55.46l57.99.46c.97.1,1.84.19,2.6.27.77.08,1.38.24,1.84.5.46.26.74.65.84,1.19.1.54-.05,1.32-.46,2.34-.46,1.48-.86,2.58-1.19,3.29-.33.72-.45,1.12-.34,1.23-.46,1.53-1,3.24-1.61,5.13-.61,1.89-1.29,3.75-2.03,5.59-.74,1.84-1.51,3.56-2.3,5.17-.79,1.61-1.62,2.9-2.49,3.87v1.38l-5.21,9.42.15.15c.36.26.45.7.27,1.34-.18.64-.46,1.32-.84,2.03-.38.72-.78,1.39-1.19,2.03-.41.64-.64,1.11-.69,1.42-.92,2.6-1.98,5.3-3.18,8.08-1.2,2.78-2.26,5.48-3.18,8.08,0,.1-.08.26-.23.46-.15.2-.23.36-.23.46-.31.61-.77,1.53-1.38,2.76-.61,1.23-1.32,2.63-2.11,4.21s-1.62,3.24-2.49,4.98c-.87,1.74-1.71,3.38-2.53,4.94-.82,1.56-1.57,2.95-2.26,4.17-.69,1.23-1.24,2.12-1.65,2.68-.26.51-.63,1.47-1.11,2.87-.49,1.41-1.03,2.91-1.65,4.52-.61,1.61-1.24,3.14-1.88,4.6s-1.24,2.52-1.8,3.18l2.83-.08c.61,0,1.52-.02,2.72-.08,1.2-.05,2.45-.1,3.75-.15,1.3-.05,2.53-.1,3.68-.15,1.15-.05,2-.08,2.57-.08.15-.05.58-.08,1.26-.08s1.43-.01,2.22-.04c.79-.03,1.53-.04,2.22-.04s1.14-.02,1.34-.08h.46c.15.05.6.08,1.34.08s1.53.01,2.38.04c.84.03,1.63.04,2.37.04s1.19.03,1.34.08c.15,0,.54-.01,1.15-.04.61-.03,1.28-.04,1.99-.04h1.99c.61,0,1,.03,1.15.08.2,0,.54.05,1,.15.46.1.93.22,1.42.34.48.13.96.27,1.42.42s.79.28,1,.38c.36.05.61.29.77.73.15.43.23,1.02.23,1.76s-.03,1.57-.08,2.49-.08,1.92-.08,2.99v2.6c0,.36-.03.61-.08.77v1.23c.05.1.1.34.15.73.05.38.1.8.15,1.26.05.46.1.91.15,1.34.05.43.08.73.08.88v7.81c-.31,1.12-.88,1.78-1.72,1.95-.84.18-1.75.27-2.72.27-.31.05-1.09.1-2.34.15-1.25.05-2.58.1-3.98.15-1.41.05-2.73.09-3.98.11-1.25.03-2.03.04-2.34.04h-9.27c-.1,0-.38.03-.84.08-.46.05-.95.1-1.46.15-.51.05-.98.1-1.42.15-.43.05-.73.08-.88.08h-3.91c-.46,0-1.29-.01-2.49-.04-1.2-.03-2.48-.06-3.83-.12-1.35-.05-2.64-.1-3.87-.15-1.23-.05-2.07-.1-2.53-.15-.26.1-.78.2-1.57.31-.79.1-1.32.15-1.57.15h-.92c-2.2-.1-4.57-.13-7.12-.08-2.55.05-5.13.08-7.74.08s-5.16-.11-7.66-.34c-2.5-.23-4.8-.7-6.89-1.42-.46-.15-.88-.42-1.26-.8-.38-.38-.57-.88-.57-1.49Z"/>
    <path class="cls-1" d="M965.38,260.72c-.36-.1-.89-.22-1.61-.34-.72-.13-1.61-.29-2.68-.5-.05,0-.28-.04-.69-.11-.41-.08-.91-.2-1.49-.38-.59-.18-1.2-.42-1.84-.73-.64-.31-1.21-.69-1.72-1.15-.1-.05-.32-.14-.65-.27-.33-.13-.7-.28-1.11-.46-.41-.18-.78-.33-1.11-.46-.33-.13-.55-.22-.65-.27-.92-.36-1.8-.84-2.64-1.46s-1.65-1.25-2.41-1.92c-.77-.66-1.51-1.34-2.22-2.03-.72-.69-1.38-1.34-1.99-1.95-2.45-2.3-4.65-4.72-6.59-7.28-1.94-2.55-3.6-5.36-4.98-8.43-1.12-2.45-2.02-4.69-2.68-6.7-.67-2.02-1.18-4.01-1.53-5.98-.36-1.97-.6-4-.73-6.09-.13-2.09-.19-4.49-.19-7.2v-5.75c.66-2.91,1.43-5.66,2.3-8.24.87-2.58,1.93-5.04,3.18-7.39,1.25-2.35,2.69-4.6,4.33-6.74,1.63-2.15,3.55-4.21,5.75-6.21,1.58-1.53,3.22-2.86,4.9-3.98,1.69-1.12,3.5-2.15,5.44-3.06.15-.05.37-.15.65-.31.28-.15.59-.29.92-.42.33-.13.62-.24.88-.34.25-.1.43-.18.54-.23.15,0,.54-.04,1.15-.11.61-.08.97-.11,1.07-.11.15-.1.46-.32.92-.65.46-.33.74-.55.84-.65.05,0,.22-.02.5-.08.28-.05.58-.11.88-.19.31-.08.59-.14.84-.19.25-.05.41-.1.46-.15.2-.05.66-.17,1.38-.34.71-.18,1.48-.37,2.3-.57.82-.2,1.59-.4,2.34-.57.74-.18,1.21-.27,1.42-.27.41-.15,1.15-.29,2.22-.42,1.07-.13,2.22-.24,3.45-.34,1.23-.1,2.39-.2,3.49-.31,1.1-.1,1.9-.18,2.41-.23h.92c.25,0,.52.01.8.04.28.03.5.04.65.04,1.12.05,2.14.1,3.06.15.92.05,1.89.2,2.91.46,1.43.36,2.88.69,4.37,1,1.48.31,2.94.56,4.37.77.36.15.96.43,1.8.84.84.41,1.74.87,2.68,1.38.94.51,1.83,1,2.64,1.46.82.46,1.38.79,1.68,1,.15.1.55.47,1.19,1.11.64.64,1.34,1.34,2.11,2.11.77.77,1.51,1.53,2.22,2.3.71.77,1.25,1.35,1.61,1.76.05.1.2.33.46.69.25.36.55.78.88,1.26.33.49.66.96,1,1.42.33.46.6.84.8,1.15,1.84,2.81,3.36,5.59,4.56,8.35,1.2,2.76,2.16,5.55,2.87,8.39.71,2.83,1.24,5.75,1.57,8.73.33,2.99.5,6.09.5,9.31v.31c-.1.87-.22,2.06-.34,3.56-.13,1.51-.26,3-.38,4.48-.13,1.48-.24,2.81-.34,3.98-.1,1.18-.18,1.87-.23,2.07-.36,2.6-.91,5.08-1.65,7.43-.74,2.35-1.65,4.67-2.72,6.97-.97,1.23-1.75,2.26-2.34,3.1-.59.84-1.19,1.66-1.8,2.45-.61.79-1.32,1.66-2.11,2.6-.79.95-1.88,2.13-3.26,3.56-1.79,1.33-3.69,2.55-5.71,3.68-2.02,1.12-4.1,2.09-6.24,2.91-2.15.82-4.33,1.46-6.55,1.92-2.22.46-4.41.64-6.55.54h-1.03c-.49,0-1.02-.01-1.61-.04-.59-.02-1.12-.05-1.61-.08-.49-.02-.83-.04-1.03-.04-.1-.1-.28-.2-.54-.31-.26-.1-.43-.15-.54-.15s-.33.03-.69.08c-.36.05-.75.12-1.19.19s-.84.14-1.23.19c-.38.05-.63.05-.73,0-.2,0-.68-.04-1.42-.11-.74-.08-1.55-.18-2.41-.31-.87-.13-1.67-.24-2.41-.34-.74-.1-1.19-.18-1.34-.23h-.77l-1.92-.54ZM955.34,208.09c.05,1.43.18,2.83.38,4.21s.59,2.73,1.15,4.06c0,.1.13.38.38.84.25.46.38.74.38.84.2.66.41,1.38.61,2.15.2.77.42,1.53.65,2.3.23.77.5,1.51.8,2.22.31.72.69,1.35,1.15,1.92.15.15.41.42.77.8.36.38.71.77,1.07,1.15.36.38.69.74,1,1.07.31.33.51.52.61.57.05.05.22.18.5.38.28.2.61.42,1,.65s.77.47,1.15.73c.38.26.7.43.96.54l.77.54c.15.1.48.33,1,.69.51.36.82.54.92.54.1.1.36.22.77.34.41.13.74.19,1,.19,1.07.51,1.88.8,2.41.88s1,.08,1.38,0,.79-.15,1.23-.23c.43-.08,1.11-.04,2.03.12.05,0,.23-.01.54-.04.31-.02.64-.06,1-.11.36-.05.71-.1,1.07-.15.36-.05.64-.1.84-.15,2.4-.36,4.65-1.17,6.74-2.45,2.09-1.28,3.92-2.86,5.48-4.75,1.56-1.89,2.77-4,3.64-6.32.87-2.32,1.3-4.69,1.3-7.09,0-.15.01-.78.04-1.88.03-1.1.14-3.03.34-5.78,0-1.33-.27-2.63-.8-3.91-.54-1.28-1.01-2.58-1.42-3.91-.72-2.04-1.88-3.77-3.49-5.17-1.61-1.4-3.28-2.69-5.02-3.87-1.07-.71-2.06-1.31-2.95-1.8-.89-.48-1.8-.88-2.72-1.19-.92-.31-1.88-.54-2.87-.69s-2.13-.25-3.41-.31c-1.17-.05-2.2-.06-3.06-.04-.87.03-1.89.17-3.06.42-1.28.26-2.6.61-3.98,1.07-1.38.46-2.69,1.03-3.95,1.72-1.25.69-2.37,1.52-3.37,2.49-1,.97-1.72,2.09-2.18,3.37l-1.3,3.68c-.31.41-.59,1-.84,1.76-.26.77-.46,1.6-.61,2.49-.15.89-.23,1.79-.23,2.68s.08,1.7.23,2.41Z"/>
    <path class="cls-1" d="M1074.01,260.72c-.36-.1-.89-.22-1.61-.34-.72-.13-1.61-.29-2.68-.5-.05,0-.28-.04-.69-.11-.41-.08-.91-.2-1.49-.38-.59-.18-1.2-.42-1.84-.73-.64-.31-1.21-.69-1.72-1.15-.1-.05-.32-.14-.65-.27-.33-.13-.7-.28-1.11-.46-.41-.18-.78-.33-1.11-.46-.33-.13-.55-.22-.65-.27-.92-.36-1.8-.84-2.64-1.46s-1.65-1.25-2.41-1.92c-.77-.66-1.51-1.34-2.22-2.03-.72-.69-1.38-1.34-1.99-1.95-2.45-2.3-4.65-4.72-6.59-7.28-1.94-2.55-3.6-5.36-4.98-8.43-1.12-2.45-2.02-4.69-2.68-6.7-.67-2.02-1.18-4.01-1.53-5.98-.36-1.97-.6-4-.73-6.09-.13-2.09-.19-4.49-.19-7.2v-5.75c.66-2.91,1.43-5.66,2.3-8.24.87-2.58,1.93-5.04,3.18-7.39,1.25-2.35,2.69-4.6,4.33-6.74,1.63-2.15,3.55-4.21,5.75-6.21,1.58-1.53,3.22-2.86,4.9-3.98,1.69-1.12,3.5-2.15,5.44-3.06.15-.05.37-.15.65-.31.28-.15.59-.29.92-.42.33-.13.62-.24.88-.34.25-.1.43-.18.54-.23.15,0,.54-.04,1.15-.11.61-.08.97-.11,1.07-.11.15-.1.46-.32.92-.65.46-.33.74-.55.84-.65.05,0,.22-.02.5-.08.28-.05.58-.11.88-.19.31-.08.59-.14.84-.19.25-.05.41-.1.46-.15.2-.05.66-.17,1.38-.34.71-.18,1.48-.37,2.3-.57.82-.2,1.59-.4,2.34-.57.74-.18,1.21-.27,1.42-.27.41-.15,1.15-.29,2.22-.42,1.07-.13,2.22-.24,3.45-.34,1.23-.1,2.39-.2,3.49-.31,1.1-.1,1.9-.18,2.41-.23h.92c.25,0,.52.01.8.04.28.03.5.04.65.04,1.12.05,2.14.1,3.06.15.92.05,1.89.2,2.91.46,1.43.36,2.88.69,4.37,1,1.48.31,2.94.56,4.37.77.36.15.96.43,1.8.84.84.41,1.74.87,2.68,1.38.94.51,1.83,1,2.64,1.46.82.46,1.38.79,1.68,1,.15.1.55.47,1.19,1.11.64.64,1.34,1.34,2.11,2.11.77.77,1.51,1.53,2.22,2.3.71.77,1.25,1.35,1.61,1.76.05.1.2.33.46.69.25.36.55.78.88,1.26.33.49.66.96,1,1.42.33.46.6.84.8,1.15,1.84,2.81,3.36,5.59,4.56,8.35,1.2,2.76,2.16,5.55,2.87,8.39.71,2.83,1.24,5.75,1.57,8.73.33,2.99.5,6.09.5,9.31v.31c-.1.87-.22,2.06-.34,3.56-.13,1.51-.26,3-.38,4.48-.13,1.48-.24,2.81-.34,3.98-.1,1.18-.18,1.87-.23,2.07-.36,2.6-.91,5.08-1.65,7.43-.74,2.35-1.65,4.67-2.72,6.97-.97,1.23-1.75,2.26-2.34,3.1-.59.84-1.19,1.66-1.8,2.45-.61.79-1.32,1.66-2.11,2.6-.79.95-1.88,2.13-3.26,3.56-1.79,1.33-3.69,2.55-5.71,3.68-2.02,1.12-4.1,2.09-6.24,2.91-2.15.82-4.33,1.46-6.55,1.92-2.22.46-4.41.64-6.55.54h-1.03c-.49,0-1.02-.01-1.61-.04-.59-.02-1.12-.05-1.61-.08-.49-.02-.83-.04-1.03-.04-.1-.1-.28-.2-.54-.31-.26-.1-.43-.15-.54-.15s-.33.03-.69.08c-.36.05-.75.12-1.19.19s-.84.14-1.23.19c-.38.05-.63.05-.73,0-.2,0-.68-.04-1.42-.11-.74-.08-1.55-.18-2.41-.31-.87-.13-1.67-.24-2.41-.34-.74-.1-1.19-.18-1.34-.23h-.77l-1.92-.54ZM1063.97,208.09c.05,1.43.18,2.83.38,4.21s.59,2.73,1.15,4.06c0,.1.13.38.38.84.25.46.38.74.38.84.2.66.41,1.38.61,2.15.2.77.42,1.53.65,2.3.23.77.5,1.51.8,2.22.31.72.69,1.35,1.15,1.92.15.15.41.42.77.8.36.38.71.77,1.07,1.15.36.38.69.74,1,1.07.31.33.51.52.61.57.05.05.22.18.5.38.28.2.61.42,1,.65s.77.47,1.15.73c.38.26.7.43.96.54l.77.54c.15.1.48.33,1,.69.51.36.82.54.92.54.1.1.36.22.77.34.41.13.74.19,1,.19,1.07.51,1.88.8,2.41.88s1,.08,1.38,0,.79-.15,1.23-.23c.43-.08,1.11-.04,2.03.12.05,0,.23-.01.54-.04.31-.02.64-.06,1-.11.36-.05.71-.1,1.07-.15.36-.05.64-.1.84-.15,2.4-.36,4.65-1.17,6.74-2.45,2.09-1.28,3.92-2.86,5.48-4.75,1.56-1.89,2.77-4,3.64-6.32.87-2.32,1.3-4.69,1.3-7.09,0-.15.01-.78.04-1.88.03-1.1.14-3.03.34-5.78,0-1.33-.27-2.63-.8-3.91-.54-1.28-1.01-2.58-1.42-3.91-.72-2.04-1.88-3.77-3.49-5.17-1.61-1.4-3.28-2.69-5.02-3.87-1.07-.71-2.06-1.31-2.95-1.8-.89-.48-1.8-.88-2.72-1.19-.92-.31-1.88-.54-2.87-.69s-2.13-.25-3.41-.31c-1.17-.05-2.2-.06-3.06-.04-.87.03-1.89.17-3.06.42-1.28.26-2.6.61-3.98,1.07-1.38.46-2.69,1.03-3.95,1.72-1.25.69-2.37,1.52-3.37,2.49-1,.97-1.72,2.09-2.18,3.37l-1.3,3.68c-.31.41-.59,1-.84,1.76-.26.77-.46,1.6-.61,2.49-.15.89-.23,1.79-.23,2.68s.08,1.7.23,2.41Z"/>
  </g>
  <g>
    <path class="cls-1" d="M196.98,40.48c-86.45,0-156.5,70.05-156.5,156.5,0,21.1,4.16,41.26,11.73,59.62,3.51,8.52,7.76,16.66,12.66,24.35-.64-20.93,5.13-42.26,16.92-57.88,26.21-34.71,73.67-31.87,73.67-31.87-.71,31.87,18.42,36.83,18.42,36.83,0,0-18.42-20.54-5.67-46.04,12.75-25.5,48.17-23.38,63.75-24.79,14.45-1.31,62.28-3.66,61.39-37.32-.08-3-.65-6.03-1.93-8.74-2.02-4.28-5.25-7.97-9.49-10.43-6.17-3.58-14.65-5.28-24.62,1.18-2.76,1.79-5.11,4.2-6.75,7.05-2.54,4.42-5.04,11.73-1.55,20.5.34.85.14,1.82-.57,2.4-2.05,1.69-5.13.91-6.16-1.54-2.72-6.48-5.82-18.87,2.25-31.57.84-1.32,1.83-2.55,2.93-3.68,2.89-2.97,9.04-7.97,18.33-9.77,24.36-4.74,47.1,18.33,50.93,45.62,4.46,31.79-3.21,66.54-30.29,94.89l-.08-.09c-3.28,3.87-6.76,7.51-10.48,10.85-26.49,23.77-27.62,48.88-30.46,60.92-2.47,10.48-5.33,42.19-6.03,50.22h0c17.43-4.89,33.63-12.72,48.03-22.92,23.99-17,42.98-40.59,54.34-68.14h0s0,0,0,0c7.57-18.36,11.73-38.52,11.73-59.62,0-86.45-70.05-156.5-156.5-156.5Z"/>
    <path class="cls-1" d="M165.13,279.23c2.86-.05,5.16-1.06,6.1-1.15.94.09,3.24,1.11,6.1,1.15,2.99.05,4.32-1,4.55-2.04.24-1.04-.76-1.14-1.94-.85-1.19.28-3.23.33-5.6.05-2.37-.28-1.89-2.7-1.89-2.7v-5.5c0-1.76.52-3.22,3.53-3.53,3.01-.31,3.63-1.04,2.28-4.57-1.27-3.31-6.4-3.15-7.04-3.12-.64-.03-5.77-.19-7.04,3.12-1.35,3.53-.73,4.26,2.28,4.57,3.01.31,3.53,1.76,3.53,3.53v5.5s.48,2.41-1.89,2.7c-2.37.28-4.41.24-5.6-.05-1.19-.28-2.18-.19-1.94.85s1.57,2.09,4.55,2.04Z"/>
    <path class="cls-1" d="M212.5,281.39s1.11-13.36.14-16.95c-.98-3.58-.98-7.74-.57-8.71.41-.98,4.48-11.57-1.87-16.86-6.35-5.29-12.22-.65-13.93-.9-1.7-.24-13.93-4.69-24.98-4.48h0s-.04,0-.05,0c-.02,0-.04,0-.05,0h0c-11.05-.21-23.27,4.24-24.98,4.48-1.71.24-7.57-4.4-13.93.9-6.35,5.29-2.28,15.88-1.87,16.86.41.98.41,5.13-.57,8.71-.98,3.58.14,16.95.14,16.95.29,6.28-2.28,9.14-11.14,30.27-2.82,6.72-3.89,13.03-4.06,18.52,0,0,0,0,0,0,6.95,4.3,14.27,8.07,21.89,11.26.85.36,1.71.71,2.57,1.05.54.22,1.09.42,1.64.63,0,0,0,0,0,0-.27-1.49-.44-3-.5-4.54-.03-.71-.02-1.42,0-2.13,7.91,1.77,15.09,5.74,20.85,11.54.38.38.74.77,1.11,1.17-.07.14-.14.27-.21.41,0,0,0,0,0,0,1.32.3,2.64.58,3.97.85,0,0,0,0,0,0,2.07-3.82,4.62-7.39,7.61-10.66.07-.07.13-.15.2-.22.01-.01.02-.03.04-.04,7.05-7.6,16.02-12.94,26.01-15.49,1.03,2.2,1.81,4.49,2.3,6.83-8.85,2.15-16.79,6.81-23.03,13.54-2.11,2.28-3.97,4.74-5.56,7.34,0,0,0,0,0,0,1.43.21,2.86.41,4.3.58,0,0,0,0,0,0,1.24-1.84,2.61-3.61,4.14-5.26,5.64-6.08,12.77-10.3,20.74-12.31.22,2.56.11,5.13-.3,7.67-5.76,1.84-10.95,5.12-15.1,9.59-.33.36-.64.73-.96,1.1,0,0,0,0,0,0,1.7.11,3.41.2,5.12.26,0,0,0,0,0,0,2.86-2.74,6.19-4.91,9.84-6.39-.72,2.24-1.7,4.41-2.93,6.47,0,0,0,0,0,0,.34,0,.69,0,1.03,0,1.17-.02,2.34-.05,3.51-.09,8.38-.32,16.6-1.3,24.59-2.88,0,0,0,0,0,0,1.18-8.08,2.26-23.94-3.97-38.82-8.85-21.13-11.42-23.99-11.14-30.27ZM195.53,317.2c-4.64.22-9.29-.58-13.61-2.39-4.59-1.93-8.61-4.9-11.79-8.66.5-.02,1-.04,1.51-.04,7.62,0,15.25,2.76,21.27,8.33.94.88,1.81,1.8,2.62,2.76ZM188.45,254.53c1.05-.45,2.64,0,2.71,2.48.07,2.83-2.59,2.26-3.05,1.58-.45-.68-1.64-3.21.34-4.06ZM171.23,249.86h0c17.54,0,21.07,27.3,16.61,34.98-4,6.88-14.3,7.51-16.41,7.57h0s-.08,0-.2,0c-.12,0-.2,0-.2,0h0c-2.11-.06-12.41-.7-16.41-7.58-4.46-7.68-.93-34.98,16.61-34.98ZM154.01,254.53c1.98.85.79,3.38.34,4.06-.45.68-3.12,1.25-3.05-1.58.06-2.49,1.66-2.93,2.71-2.48ZM146.64,318.56c1.27,1.84,2.61,3.62,4.07,5.29-2.06-.75-4.16-1.37-6.31-1.89.67-1.17,1.41-2.31,2.24-3.4ZM164.34,345.62c-.12-.13-.23-.26-.36-.38-6.41-6.46-14.44-10.84-23.28-12.71.37-2.39,1.03-4.72,1.93-6.95,9.81,2.17,18.73,7.01,25.94,14.09-1.55,1.9-2.96,3.89-4.24,5.95ZM172.69,335.14c-9.59-4.16-17.67-10.93-23.41-19.63,1.73-1.77,3.62-3.29,5.63-4.56,5.09,7.99,12.39,14.14,21.17,17.83.92.38,1.85.73,2.78,1.05-2.17,1.62-4.23,3.39-6.16,5.32ZM183,327c-1.83-.49-3.64-1.1-5.41-1.84-7.96-3.34-14.56-8.9-19.21-16.1,2.32-1.08,4.74-1.87,7.22-2.35,3.77,5.18,8.87,9.23,14.81,11.73,4.34,1.82,8.98,2.75,13.63,2.75.59,0,1.17-.03,1.76-.06-4.51,1.43-8.81,3.41-12.81,5.88Z"/>
    <circle class="cls-1" cx="220.19" cy="178.26" r="4.69" transform="translate(-25.71 37.57) rotate(-9.22)"/>
    <path class="cls-1" d="M196.98,0C88.37,0,0,88.37,0,196.98s88.37,196.98,196.98,196.98,196.98-88.37,196.98-196.98S305.6,0,196.98,0ZM196.98,377.28c-99.42,0-180.3-80.88-180.3-180.3S97.56,16.68,196.98,16.68s180.3,80.88,180.3,180.3-80.88,180.3-180.3,180.3Z"/>
  </g>
</svg>